<svg width="760" height="760" viewBox="0 0 201.083 201.083" xmlns="http://www.w3.org/2000/svg"><path style="font-variation-settings:normal;opacity:1;vector-effect:none;fill:#fff;fill-opacity:1;fill-rule:evenodd;stroke-width:1.00606;stroke-linecap:butt;stroke-linejoin:miter;stroke-miterlimit:4;stroke-dasharray:none;stroke-dashoffset:0;stroke-opacity:1;-inkscape-stroke:none;stop-color:#000;stop-opacity:1" d="M0 0v760h760V0H0zm267.059 4.363c61.61 0 123.219 23.604 170.427 70.813l249.8 249.799c94.416 94.417 94.416 246.438 0 340.855l-20.983 20.98c-94.417 94.417-246.437 94.417-340.854 0L75.65 437.013c-94.417-94.417-94.417-246.439 0-340.856l20.982-20.98C143.839 27.967 205.449 4.363 267.059 4.363z" transform="scale(.26458)"/><path style="fill:#ed7218;fill-opacity:.7;fill-rule:evenodd;stroke-width:.264583" d="M133.625 7.139a24.185 24.185 0 0 1 1.68.06 24.185 24.185 0 0 0-1.68-.06zm-1.741.064a24.185 24.185 0 0 0-.958.103 24.185 24.185 0 0 1 .958-.103zm3.496 0a24.185 24.185 0 0 1 1.63.175 24.185 24.185 0 0 0-1.63-.175zm1.738.19a24.185 24.185 0 0 1 1.605.29 24.185 24.185 0 0 0-1.605-.29zm-6.972.001a24.185 24.185 0 0 0-1.056.19 24.185 24.185 0 0 1 1.056-.19zm8.675.311a24.185 24.185 0 0 1 1.597.408 24.185 24.185 0 0 0-1.597-.408zm-10.389.004a24.185 24.185 0 0 0-1.092.278 24.185 24.185 0 0 1 1.092-.278zm12.042.42a24.185 24.185 0 0 1 1.566.522 24.185 24.185 0 0 0-1.566-.521zm-13.73.017a24.185 24.185 0 0 0-1.12.372 24.185 24.185 0 0 1 1.12-.372zm15.354.526a24.185 24.185 0 0 1 1.522.63 24.185 24.185 0 0 0-1.522-.63zm-16.996.029a24.185 24.185 0 0 0-1.132.466 24.185 24.185 0 0 1 1.132-.466zm18.611.644a24.185 24.185 0 0 1 1.462.731 24.185 24.185 0 0 0-1.462-.731zm-20.209.026a24.185 24.185 0 0 0-1.134.565 24.185 24.185 0 0 1 1.134-.565zm21.756.752a24.185 24.185 0 0 1 1.42.842 24.185 24.185 0 0 0-1.42-.842zm-23.299.03a24.185 24.185 0 0 0-1.117.658 24.185 24.185 0 0 1 1.117-.659zm24.772.847a24.185 24.185 0 0 1 1.374.954 24.185 24.185 0 0 0-1.374-.954zm-26.254.04a24.185 24.185 0 0 0-1.096.757 24.185 24.185 0 0 1 1.096-.756zm27.645.927a24.185 24.185 0 0 1 1.293 1.042 24.185 24.185 0 0 0-1.293-1.042zm-29.054.061a24.185 24.185 0 0 0-1.072.859 24.185 24.185 0 0 1 1.072-.859zm30.424 1.046a24.185 24.185 0 0 1 1.194 1.113 24.185 24.185 0 0 0-1.194-1.113zm-31.753.034a24.185 24.185 0 0 0-1.04.961 24.185 24.185 0 0 1 1.04-.961zm33.02 1.152a24.185 24.185 0 0 1 1.113 1.195 24.185 24.185 0 0 0-1.113-1.195zm-34.267.016a24.185 24.185 0 0 0-1.006 1.071 24.185 24.185 0 0 1 1.006-1.071zm-1.145 1.233a24.185 24.185 0 0 0-.982 1.21 24.185 24.185 0 0 1 .982-1.21zm36.59.02a24.185 24.185 0 0 1 1.038 1.29 24.185 24.185 0 0 0-1.038-1.29zm-37.625 1.26a24.185 24.185 0 0 0-.952 1.358 24.185 24.185 0 0 1 .952-1.357zm-.952 1.358a24.185 24.185 0 0 0-3.922 13.176 24.185 24.185 0 0 0 24.185 24.185 24.185 24.185 0 0 0 13.249-3.966l-31.122-31.123a65.42 65.42 0 0 0-2.39-2.272zm33.512 33.395a24.185 24.185 0 0 0 1.32-.934 24.185 24.185 0 0 1-1.32.934zm6.128-34.69a24.185 24.185 0 0 1 .95 1.368 24.185 24.185 0 0 0-.95-1.368zm.98 1.414a24.185 24.185 0 0 1 .839 1.415 24.185 24.185 0 0 0-.84-1.415zm.893 1.513a24.185 24.185 0 0 1 .731 1.462 24.185 24.185 0 0 0-.731-1.462zm.768 1.542a24.185 24.185 0 0 1 .637 1.538 24.185 24.185 0 0 0-.637-1.538zm.65 1.573a24.185 24.185 0 0 1 .529 1.59 24.185 24.185 0 0 0-.53-1.59zm.54 1.63a24.185 24.185 0 0 1 .41 1.604 24.185 24.185 0 0 0-.41-1.605zm.432 1.701a24.185 24.185 0 0 1 .29 1.603 24.185 24.185 0 0 0-.29-1.603zm.305 1.714a24.185 24.185 0 0 1 .174 1.619 24.185 24.185 0 0 0-.174-1.62zm.18 1.717a24.185 24.185 0 0 1 .06 1.667 24.185 24.185 0 0 0-.06-1.667zm-.005 3.413a24.185 24.185 0 0 1-.092.857 24.185 24.185 0 0 0 .092-.857zm-.19 1.73a24.185 24.185 0 0 1-.18 1.002 24.185 24.185 0 0 0 .18-1.002zm-.314 1.712a24.185 24.185 0 0 1-.265 1.046 24.185 24.185 0 0 0 .265-1.046zm-.436 1.685a24.185 24.185 0 0 1-.358 1.081 24.185 24.185 0 0 0 .358-1.08zm-.553 1.64a24.185 24.185 0 0 1-.441 1.074 24.185 24.185 0 0 0 .44-1.075zm-.675 1.608a24.185 24.185 0 0 1-.527 1.063 24.185 24.185 0 0 0 .527-1.063zm-.777 1.537a24.185 24.185 0 0 1-.627 1.067 24.185 24.185 0 0 0 .627-1.067zm-.885 1.477a24.185 24.185 0 0 1-.718 1.046 24.185 24.185 0 0 0 .718-1.046zm-.988 1.412a24.185 24.185 0 0 1-.817 1.025 24.185 24.185 0 0 0 .817-1.025zm-1.07 1.32a24.185 24.185 0 0 1-.935 1.016 24.185 24.185 0 0 0 .934-1.016zm-1.148 1.229a24.185 24.185 0 0 1-1.054.996 24.185 24.185 0 0 0 1.054-.996zm-1.233 1.15a24.185 24.185 0 0 1-1.175.96 24.185 24.185 0 0 0 1.175-.96z"/><path style="font-variation-settings:normal;vector-effect:none;fill:#ed7218;fill-opacity:1;fill-rule:evenodd;stroke-width:.266187;stroke-linecap:butt;stroke-linejoin:miter;stroke-miterlimit:4;stroke-dasharray:none;stroke-dashoffset:0;stroke-opacity:1;-inkscape-stroke:none;stop-color:#000" d="M133.625 7.139a24.185 24.185 0 0 0-20.263 11.008 65.42 65.42 0 0 1 2.39 2.272l31.122 31.123a24.185 24.185 0 0 0 10.936-20.219A24.185 24.185 0 0 0 133.625 7.14z"/></svg>