<svg width="284" height="291" viewBox="0 0 284 291" fill="none" xmlns="http://www.w3.org/2000/svg">
  <path d="M97.2163 16.6735C74.985 -5.55782 38.9047 -5.55782 16.6735 16.6735C-5.55782 38.9047 -5.55782 74.985 16.6735 97.2163L193.309 273.852C215.54 296.083 251.62 296.083 273.852 273.852C296.083 251.62 296.083 215.54 273.852 193.309L97.2163 16.6735Z" fill="#1BACAF"/>
  <path d="M193.309 193.308C171.078 215.54 171.078 251.62 193.309 273.851C215.54 296.083 251.62 296.083 273.852 273.851L400.315 147.388C422.546 125.157 422.546 89.0766 400.315 66.8453C378.084 44.6141 342.003 44.6141 319.772 66.8453L193.309 193.308Z" fill="#F5A027"/>
  <g opacity="0.6">
    <g opacity="0.6">
      <path opacity="0.6" d="M152.977 233.519L193.309 273.852C215.54 296.083 251.62 296.083 273.852 273.852C296.083 251.62 296.083 215.54 273.852 193.309L233.519 152.977" fill="#092F44"/>
    </g>
  </g>
  <path d="M290.495 233.52C290.495 202.056 264.983 176.545 233.519 176.545C202.055 176.545 176.544 202.056 176.544 233.52C176.544 264.984 202.055 290.495 233.519 290.495C264.983 290.495 290.495 264.984 290.495 233.52Z" fill="#ED7218"/>
</svg>