<?xml version="1.0" encoding="UTF-8"?>
<svg width="49" height="34" version="1.1" viewBox="0 0 49 34" xmlns="http://www.w3.org/2000/svg">
 <flowRoot fill="#000000" font-family="sans-serif" font-size="10px" letter-spacing="0px" stroke-width="1px" word-spacing="0px" style="line-height:125%" xml:space="preserve"><flowRegion font-family="sans-serif"><rect x="1.2405" y="6.0886" width="35.044" height="27.136"/></flowRegion><flowPara/></flowRoot>
 <g transform="scale(1.0148 .98545)" fill="#092f44" stroke-width=".96171px" aria-label="Leeds Adult Learning">
  <path d="m1.7486 8.6427h4.7316v-1.0387h-3.5891v-7.109h-1.1425z"/>
  <path d="m10.029 2.6647c-1.7542 0-2.8967 1.3503-2.8967 3.0698 0 1.7195 1.1887 3.0467 3.0352 3.0467 0.69244 0 1.3733-0.069244 2.1235-0.57703v-1.1656c-0.49624 0.43854-1.2233 0.70398-1.9619 0.70398-1.004 0-1.8927-0.49625-2.0196-1.7311h4.3046c0.03462-0.18465 0.0577-0.41546 0.0577-0.63473 0-1.5003-0.96941-2.712-2.6428-2.712zm-0.02308 1.004c0.87708 0 1.4772 0.56549 1.558 1.431h-3.2198c0.17311-0.88863 0.7963-1.431 1.6618-1.431z"/>
  <path d="m16.694 2.6647c-1.7542 0-2.8967 1.3503-2.8967 3.0698 0 1.7195 1.1887 3.0467 3.0352 3.0467 0.69244 0 1.3733-0.069244 2.1235-0.57703v-1.1656c-0.49625 0.43854-1.2233 0.70398-1.9619 0.70398-1.004 0-1.8927-0.49625-2.0196-1.7311h4.3046c0.03462-0.18465 0.0577-0.41546 0.0577-0.63473 0-1.5003-0.96941-2.712-2.6428-2.712zm-0.02308 1.004c0.87709 0 1.4772 0.56549 1.558 1.431h-3.2198c0.17311-0.88863 0.7963-1.431 1.6618-1.431z"/>
  <path d="m25.216 7.7772v0.86554h1.0733v-8.1477h-1.1194v3.116c-0.33468-0.51933-1.1194-0.94633-1.9273-0.94633-1.558 0-2.7697 1.281-2.7697 3.0583 0 1.7773 1.2118 3.0583 2.7697 3.0583 0.80784 0 1.6503-0.43854 1.9734-1.004zm-1.7888-0.023081c-0.96941 0-1.8234-0.81938-1.8234-2.0311s0.854-2.0311 1.8234-2.0311c0.96941 0 1.8119 0.80784 1.8119 2.0311 0 1.2118-0.84246 2.0311-1.8119 2.0311z"/>
  <path d="m30.138 2.6647c-1.2925 0-2.135 0.75014-2.135 1.7657 0 1.0502 0.91171 1.3964 1.835 1.6849 0.84246 0.25389 1.3041 0.41546 1.3041 0.88863 0 0.45008-0.39238 0.77322-1.1771 0.77322-0.7963 0-1.408-0.33468-1.9734-0.91171v1.2464c0.54241 0.43854 1.2925 0.66935 2.0542 0.66935 1.3272 0 2.1812-0.69244 2.1812-1.7888 0-1.1656-0.98095-1.4887-1.9157-1.7542-0.78476-0.23081-1.2118-0.43854-1.2118-0.86554 0-0.39238 0.34622-0.70398 1.0848-0.70398 0.65781 0 1.2233 0.25389 1.7426 0.69244v-1.1541c-0.41546-0.33468-1.1194-0.54241-1.7888-0.54241z"/>
  <path d="m0.69837 20.074h1.1771l0.854-2.2158h3.4622l0.854 2.2158h1.1771l-3.1621-8.1477h-1.2002zm2.4004-3.2891 1.3618-3.6122 1.3618 3.6122z"/>
  <path d="m13.607 19.209v0.86554h1.0733v-8.1477h-1.1194v3.116c-0.33468-0.51933-1.1194-0.94633-1.9273-0.94633-1.558 0-2.7697 1.281-2.7697 3.0583 0 1.7773 1.2118 3.0583 2.7697 3.0583 0.80784 0 1.6503-0.43854 1.9734-1.004zm-1.7888-0.02308c-0.96941 0-1.8234-0.81938-1.8234-2.0311s0.854-2.0311 1.8234-2.0311c0.96941 0 1.8119 0.80784 1.8119 2.0311 0 1.2118-0.84246 2.0311-1.8119 2.0311z"/>
  <path d="m20.825 19.197v0.87709h1.0964v-5.8395h-1.1194v2.9659c0 0.86554-0.427 1.985-1.6388 1.985-0.75014 0-1.3733-0.49624-1.3733-1.4657v-3.4853h-1.1194v3.5314c0 1.5464 0.93479 2.4466 2.262 2.4466 0.96941 0 1.558-0.40392 1.8927-1.0156z"/>
  <path d="m23.947 18.62c0 1.2348 0.75014 1.5926 1.5234 1.5926 0.17311 0 0.34622-0.02308 0.51933-0.09233v-1.004c-0.15003 0.0577-0.27698 0.06924-0.38084 0.06924-0.43854 0-0.54241-0.32314-0.54241-0.76168v-6.4974h-1.1194z"/>
  <path d="m30.335 18.99c-0.27697 0.16157-0.56549 0.18465-0.69244 0.18465-0.64627 0-0.94633-0.30006-0.94633-0.95787v-3.0467h1.5003v-0.93479h-1.5003v-1.7195l-1.0848 0.34622v1.3733h-0.91171v0.93479h0.87709v3.1852c0 1.1771 0.6809 1.858 1.8234 1.858 0.40392 0 0.71552-0.06924 0.93479-0.19619z"/>
  <path d="m1.7486 31.506h4.7316v-1.0387h-3.5891v-7.109h-1.1425z"/>
  <path d="m10.029 25.528c-1.7542 0-2.8967 1.3502-2.8967 3.0698 0 1.7196 1.1887 3.0467 3.0352 3.0467 0.69244 0 1.3733-0.06924 2.1235-0.57703v-1.1656c-0.49624 0.43854-1.2233 0.70398-1.9619 0.70398-1.004 0-1.8927-0.49625-2.0196-1.7311h4.3046c0.03462-0.18465 0.0577-0.41546 0.0577-0.63473 0-1.5003-0.96941-2.712-2.6428-2.712zm-0.02308 1.004c0.87708 0 1.4772 0.56549 1.558 1.431h-3.2198c0.17311-0.88863 0.7963-1.431 1.6618-1.431z"/>
  <path d="m14.247 26.105v1.1194c0.43854-0.32314 1.1425-0.6809 1.9157-0.6809 0.854 0 1.3618 0.43854 1.3618 1.1656v0.21927l-1.5349 0.21927c-1.408 0.19619-2.1812 0.77322-2.1812 1.8119 0 0.96941 0.80784 1.6849 1.8927 1.6849 0.80784 0 1.4887-0.34622 1.9042-1.0387v0.90017h1.0387v-3.7738c0-1.3387-0.92325-2.2043-2.412-2.2043-0.78476 0-1.5118 0.25389-1.985 0.57703zm1.6388 4.5932c-0.57703 0-0.98095-0.3116-0.98095-0.80784 0-0.50779 0.45008-0.81938 1.2579-0.92325l1.3849-0.17311v0.30006c0 0.81938-0.71552 1.6041-1.6618 1.6041z"/>
  <path d="m21.743 25.667h-1.0964v5.8395h1.1194v-2.8967c0-1.1887 0.70398-1.9619 1.7773-1.9619 0.06924 0 0.18465 0.01154 0.23081 0.02308v-1.0964c-0.06924-0.02308-0.21927-0.04616-0.35776-0.04616-0.78476 0-1.3849 0.45008-1.6734 1.1656z"/>
  <path d="m26.226 26.544v-0.87708h-1.0964v5.8395h1.1194v-2.9659c0-0.86554 0.427-1.985 1.6388-1.985 0.75014 0 1.3733 0.49625 1.3733 1.4657v3.4853h1.1194v-3.5314c0-1.5464-0.93479-2.4466-2.262-2.4466-0.96941 0-1.558 0.40392-1.8927 1.0156z"/>
  <path d="m32.937 23.22c-0.38084 0-0.70398 0.3116-0.70398 0.70398 0 0.39238 0.32314 0.71552 0.70398 0.71552s0.70398-0.32314 0.70398-0.71552c0-0.39238-0.32314-0.70398-0.70398-0.70398zm-0.56549 8.2862h1.1194v-5.8395h-1.1194z"/>
  <path d="m36.682 26.544v-0.87708h-1.0964v5.8395h1.1194v-2.9659c0-0.86554 0.427-1.985 1.6388-1.985 0.75014 0 1.3733 0.49625 1.3733 1.4657v3.4853h1.1194v-3.5314c0-1.5464-0.93479-2.4466-2.262-2.4466-0.96941 0-1.558 0.40392-1.8927 1.0156z"/>
  <path d="m44.685 25.528c-1.3041 0-2.3312 0.94633-2.3312 2.135 0 0.71552 0.38084 1.3502 0.95787 1.7311-0.3116 0.23081-0.51933 0.53087-0.51933 0.87708 0 0.3116 0.11541 0.58857 0.38084 0.78476-0.54241 0.26543-0.98095 0.70398-0.98095 1.2695 0 1.0271 1.0156 1.6272 2.6313 1.6272 1.7657 0 2.9082-0.78476 2.9082-1.7888 0-0.93479-0.76168-1.6272-1.9388-1.6272h-1.4772c-0.23081 0-0.46162-0.15003-0.46162-0.41546 0-0.17311 0.10386-0.30006 0.23081-0.39238 0.19619 0.04616 0.39238 0.06924 0.60011 0.06924 1.3041 0 2.3312-0.94633 2.3312-2.135 0-0.39238-0.10386-0.75014-0.30006-1.0617h0.95787v-0.93478h-2.1466c-0.26543-0.092325-0.54241-0.13849-0.84246-0.13849zm0 0.98095c0.69244 0 1.2464 0.51933 1.2464 1.1541s-0.55395 1.1541-1.2464 1.1541-1.2464-0.51933-1.2464-1.1541 0.55395-1.1541 1.2464-1.1541zm-0.69244 5.0202h1.708c0.50779 0 0.93479 0.21927 0.93479 0.65781 0 0.45008-0.63473 0.76168-1.7888 0.76168-0.87708 0-1.5349-0.26543-1.5349-0.72706 0-0.41546 0.427-0.62319 0.6809-0.69244z"/>
 </g>
 <flowRoot fill="#000000" font-family="'Noto Serif Display'" font-size="10px" letter-spacing="0px" stroke-width="1px" word-spacing="0px" style="line-height:125%" xml:space="preserve"><flowRegion font-family="'Noto Serif Display'"><rect x="-63.886" y="-2.1297" width="36.595" height="29.772"/></flowRegion><flowPara/></flowRoot>
</svg>
