<?xml version="1.0" encoding="UTF-8" standalone="no"?>
<svg
   xmlns:dc="http://purl.org/dc/elements/1.1/"
   xmlns:cc="http://creativecommons.org/ns#"
   xmlns:rdf="http://www.w3.org/1999/02/22-rdf-syntax-ns#"
   xmlns:svg="http://www.w3.org/2000/svg"
   xmlns="http://www.w3.org/2000/svg"
   xmlns:sodipodi="http://sodipodi.sourceforge.net/DTD/sodipodi-0.dtd"
   xmlns:inkscape="http://www.inkscape.org/namespaces/inkscape"
   width="49"
   height="34"
   viewBox="0 0 49 34"
   fill="none"
   version="1.1"
   id="svg4"
   sodipodi:docname="lal_logo.svg"
   inkscape:version="0.92.3 (2405546, 2018-03-11)">
  <metadata
     id="metadata10">
    <rdf:RDF>
      <cc:Work
         rdf:about="">
        <dc:format>image/svg+xml</dc:format>
        <dc:type
           rdf:resource="http://purl.org/dc/dcmitype/StillImage" />
        <dc:title></dc:title>
      </cc:Work>
    </rdf:RDF>
  </metadata>
  <defs
     id="defs8" />
  <sodipodi:namedview
     pagecolor="#ffffff"
     bordercolor="#666666"
     borderopacity="1"
     objecttolerance="10"
     gridtolerance="10"
     guidetolerance="10"
     inkscape:pageopacity="0"
     inkscape:pageshadow="2"
     inkscape:window-width="1920"
     inkscape:window-height="999"
     id="namedview6"
     showgrid="false"
     inkscape:zoom="6.4489796"
     inkscape:cx="20.080696"
     inkscape:cy="17"
     inkscape:window-x="0"
     inkscape:window-y="30"
     inkscape:window-maximized="1"
     inkscape:current-layer="svg4" />
  <path
     d="m 4.5873922,-29.920886 h 1.188 v -8.472 h -1.188 z m 4.46475,-5.16 v -0.912 h -1.14 v 6.072 h 1.164 v -3.084 c 0,-0.9 0.444,-2.064 1.7039998,-2.064 0.78,0 1.428,0.516 1.428,1.524 v 3.624 h 1.164 v -3.672 c 0,-1.608 -0.972,-2.544 -2.352,-2.544 -1.008,0 -1.6199998,0.42 -1.9679998,1.056 z m 10.6339498,-0.648 c -0.468,-0.276 -1.092,-0.408 -1.668,-0.408 -1.872,0 -3.192,1.38 -3.192,3.192 0,1.8 1.344,3.168 3.18,3.168 0.564,0 1.236,-0.108 1.704,-0.408 v -1.176 c -0.432,0.336 -1.056,0.48 -1.608,0.48 -1.332,0 -2.088,-0.96 -2.088,-2.064 0,-1.2 0.828,-2.088 2.088,-2.088 0.492,0 1.14,0.156 1.584,0.468 z m 1.5603,4.296 c 0,1.284 0.78,1.656 1.584,1.656 0.18,0 0.36,-0.024 0.54,-0.096 v -1.044 c -0.156,0.06 -0.288,0.072 -0.396,0.072 -0.456,0 -0.564,-0.336 -0.564,-0.792 v -6.756 h -1.164 z m 7.6824,0.6 v 0.912 h 1.14 v -6.072 h -1.164 v 3.084 c 0,0.9 -0.444,2.064 -1.704,2.064 -0.78,0 -1.428,-0.516 -1.428,-1.524 v -3.624 h -1.164 v 3.672 c 0,1.608 0.972,2.544 2.352,2.544 1.008,0 1.62,-0.42 1.968,-1.056 z m 5.03,-5.304 c -1.344,0 -2.22,0.78 -2.22,1.836 0,1.092 0.948,1.452 1.908,1.752 0.876,0.264 1.356,0.432 1.356,0.924 0,0.468 -0.408,0.804 -1.224,0.804 -0.828,0 -1.464,-0.348 -2.052,-0.948 v 1.296 c 0.564,0.456 1.344,0.696 2.136,0.696 1.38,0 2.268,-0.72 2.268,-1.86 0,-1.212 -1.02,-1.548 -1.992,-1.824 -0.816,-0.24 -1.26,-0.456 -1.26,-0.9 0,-0.408 0.36,-0.732 1.128,-0.732 0.684,0 1.272,0.264 1.812,0.72 v -1.2 c -0.432,-0.348 -1.164,-0.564 -1.86,-0.564 z m 4.2953,-2.400001 c -0.396,0 -0.732,0.324 -0.732,0.732001 0,0.408 0.336,0.744 0.732,0.744 0.396,0 0.732,-0.336 0.732,-0.744 0,-0.408001 -0.336,-0.732001 -0.732,-0.732001 z m -0.588,8.616001 h 1.164 v -6.072 h -1.164 z m 5.8506,0 2.484,-6.072 h -1.248 l -1.764,4.512 -1.764,-4.512 h -1.248 l 2.484,6.072 z m 6.0675,-6.216 c -1.824,0 -3.012,1.404 -3.012,3.192 0,1.788 1.236,3.168 3.156,3.168 0.72,0 1.428,-0.072 2.208,-0.6 v -1.212 c -0.516,0.456 -1.272,0.732 -2.04,0.732 -1.044,0 -1.968,-0.516 -2.1,-1.8 h 4.476 c 0.036,-0.192 0.06,-0.432 0.06,-0.66 0,-1.56 -1.008,-2.82 -2.748,-2.82 z m -0.024,1.044 c 0.912,0 1.536,0.588 1.62,1.488 h -3.348 c 0.18,-0.924 0.828,-1.488 1.728,-1.488 z m -38.0488,12.66 H 8.0793922 v 1.044 h 2.2559998 v 2.112 c -0.6719998,0.228 -1.3919998,0.324 -1.9079998,0.324 -1.98,0 -3.204,-1.284 -3.204,-3.12 0,-1.968 1.524,-3.3 3.276,-3.3 0.984,0 1.8719998,0.252 2.7359998,0.792 v -1.284 c -0.828,-0.456 -1.6919998,-0.672 -2.7119998,-0.672 -2.436,0 -4.5,1.776 -4.5,4.356 0,2.496 1.788,4.404 4.296,4.404 1.176,0 2.2919998,-0.276 3.1919998,-0.816 z m 2.8845,-1.56 h -1.14 v 6.072 h 1.164 v -3.012 c 0,-1.236 0.732,-2.04 1.848,-2.04 0.072,0 0.192,0.012 0.24,0.024 v -1.14 c -0.072,-0.024 -0.228,-0.048 -0.372,-0.048 -0.816,0 -1.44,0.468 -1.74,1.212 z m 5.9063,-0.144 c -1.8,0 -3.144,1.392 -3.144,3.18 0,1.788 1.344,3.18 3.144,3.18 1.8,0 3.144,-1.392 3.144,-3.18 0,-1.788 -1.344,-3.18 -3.144,-3.18 z m 0,1.104 c 1.152,0 1.956,0.948 1.956,2.076 0,1.128 -0.804,2.076 -1.956,2.076 -1.152,0 -1.956,-0.948 -1.956,-2.076 0,-1.128 0.804,-2.076 1.956,-2.076 z m 5.789,5.112 h 1.128 l 1.512,-4.452 1.512,4.452 h 1.128 l 1.98,-6.072 h -1.212 l -1.38,4.488 -1.464,-4.488 h -1.128 l -1.464,4.488 -1.38,-4.488 h -1.212 z m 11.5651,-1.128 c -0.288,0.168 -0.588,0.192 -0.72,0.192 -0.672,0 -0.984,-0.312 -0.984,-0.996 v -3.168 h 1.56 v -0.972 h -1.56 v -1.788 l -1.128,0.36 v 1.428 h -0.948 v 0.972 h 0.912 v 3.312 c 0,1.224 0.708,1.932 1.896,1.932 0.42,0 0.744,-0.072 0.972,-0.204 z m 1.3926,-7.344 v 8.472 h 1.164 v -3.204 c 0,-0.9 0.444,-1.944 1.704,-1.944 0.768,0 1.428,0.516 1.428,1.524 v 3.624 h 1.164 v -3.672 c 0,-1.608 -1.008,-2.544 -2.352,-2.544 -0.984,0 -1.596,0.444 -1.944,0.984 v -3.24 z m -34.4614998,20.472 h 4.92 v -1.08 h -3.732 v -7.392 h -1.188 z m 8.5046298,-6.216 c -1.824,0 -3.012,1.404 -3.012,3.192 0,1.788 1.23599,3.168 3.156,3.168 0.71997,0 1.42797,-0.072 2.20797,-0.6 v -1.212 c -0.516,0.456 -1.272,0.732 -2.03997,0.732 -1.044,0 -1.968,-0.516 -2.1,-1.8 h 4.47597 c 0.036,-0.192 0.06,-0.432 0.06,-0.66 0,-1.56 -1.008,-2.82 -2.74797,-2.82 z m -0.024,1.044 c 0.91197,0 1.53597,0.588 1.61997,1.4880002 h -3.34797 c 0.18,-0.9240002 0.828,-1.4880002 1.728,-1.4880002 z m 6.84427,-1.044 c -1.824,0 -3.012,1.404 -3.012,3.192 0,1.788 1.236,3.168 3.156,3.168 0.72,0 1.428,-0.072 2.208,-0.6 v -1.212 c -0.516,0.456 -1.272,0.732 -2.04,0.732 -1.044,0 -1.968,-0.516 -2.1,-1.8 h 4.476 c 0.036,-0.192 0.06,-0.432 0.06,-0.66 0,-1.56 -1.008,-2.82 -2.748,-2.82 z m -0.024,1.044 c 0.912,0 1.536,0.588 1.62,1.4880002 h -3.348 c 0.18,-0.9240002 0.828,-1.4880002 1.728,-1.4880002 z m 8.7764,4.272 v 0.9 h 1.116 v -8.472 h -1.164 v 3.24 c -0.348,-0.54 -1.164,-0.984 -2.004,-0.984 -1.62,0 -2.88,1.332 -2.88,3.18 0,1.848 1.26,3.18 2.88,3.18 0.84,0 1.716,-0.456 2.052,-1.044 z m -1.86,-0.024 c -1.008,0 -1.896,-0.852 -1.896,-2.112 0,-1.26 0.888,-2.112 1.896,-2.112 1.008,0 1.884,0.84 1.884,2.112 0,1.26 -0.876,2.112 -1.884,2.112 z m 6.8611,-5.292 c -1.344,0 -2.22,0.78 -2.22,1.836 0,1.092 0.948,1.452 1.908,1.752 0.876,0.264 1.356,0.432 1.356,0.924 0,0.468 -0.408,0.804 -1.224,0.804 -0.828,0 -1.464,-0.348 -2.052,-0.948 v 1.296 c 0.564,0.456 1.344,0.696 2.136,0.696 1.38,0 2.268,-0.72 2.268,-1.86 0,-1.212 -1.02,-1.548 -1.992,-1.8239998 -0.816,-0.24 -1.26,-0.456 -1.26,-0.9000002 0,-0.408 0.36,-0.732 1.128,-0.732 0.684,0 1.272,0.264 1.812,0.72 v -1.2 c -0.432,-0.348 -1.164,-0.564 -1.86,-0.564 z"
     id="path2"
     inkscape:connector-curvature="0"
     style="fill:#092f44" />
  <flowRoot
     xml:space="preserve"
     id="flowRoot12"
     style="fill:black;stroke:none;stroke-opacity:1;stroke-width:1px;stroke-linejoin:miter;stroke-linecap:butt;fill-opacity:1;font-family:sans-serif;font-style:normal;font-weight:normal;font-size:10px;line-height:125%;letter-spacing:0px;word-spacing:0px;-inkscape-font-specification:sans-serif;font-stretch:normal;font-variant:normal;text-anchor:start;text-align:start;writing-mode:lr;"><flowRegion
       id="flowRegion14"
       style="-inkscape-font-specification:sans-serif;font-family:sans-serif;font-weight:normal;font-style:normal;font-stretch:normal;font-variant:normal;"><rect
         id="rect16"
         width="35.044304"
         height="27.136076"
         x="1.2405063"
         y="6.0886078"
         style="-inkscape-font-specification:sans-serif;font-family:sans-serif;font-weight:normal;font-style:normal;font-stretch:normal;font-variant:normal" /></flowRegion><flowPara
       id="flowPara18"></flowPara></flowRoot>  <text
     xml:space="preserve"
     style="font-style:normal;font-variant:normal;font-weight:normal;font-stretch:normal;font-size:10px;line-height:125%;font-family:Saab;-inkscape-font-specification:Saab;text-align:start;letter-spacing:0px;word-spacing:0px;writing-mode:lr-tb;text-anchor:start;fill:#000000;fill-opacity:1;stroke:none;stroke-width:1px;stroke-linecap:butt;stroke-linejoin:miter;stroke-opacity:1;"
     x="56.287975"
     y="7.4841771"
     id="text22"><tspan
       sodipodi:role="line"
       id="tspan20"
       x="56.287975"
       y="7.4841771">Leeds</tspan><tspan
       sodipodi:role="line"
       x="56.287975"
       y="19.984177"
       id="tspan24">Adult</tspan><tspan
       sodipodi:role="line"
       x="56.287975"
       y="32.484177"
       id="tspan26">Learning</tspan></text>
  <text
     xml:space="preserve"
     style="font-style:normal;font-variant:normal;font-weight:normal;font-stretch:normal;font-size:10.05581093px;line-height:125%;font-family:'DejaVu Sans Mono';-inkscape-font-specification:'DejaVu Sans Mono, Normal';font-variant-ligatures:normal;font-variant-caps:normal;font-variant-numeric:normal;font-feature-settings:normal;text-align:start;letter-spacing:0px;word-spacing:0px;writing-mode:lr-tb;text-anchor:start;fill:#092f44;fill-opacity:1;stroke:none;stroke-width:0.94273227px;stroke-linecap:butt;stroke-linejoin:miter;stroke-opacity:1"
     x="1.0198923"
     y="8.8497047"
     id="text30"
     transform="scale(1.0643265,0.93956132)"><tspan
       sodipodi:role="line"
       x="1.0198923"
       y="8.8497047"
       id="tspan34"
       style="font-style:normal;font-variant:normal;font-weight:600;font-stretch:normal;font-size:11.31278706px;line-height:0.20000001%;font-family:Lato;-inkscape-font-specification:'Lato Semi-Bold';font-variant-ligatures:normal;font-variant-caps:normal;font-variant-numeric:normal;font-feature-settings:normal;text-align:start;letter-spacing:0.10747647px;word-spacing:-6.63683701px;writing-mode:lr-tb;text-anchor:start;fill:#092f44;fill-opacity:1;stroke-width:0.94273227px">Leeds</tspan><tspan
       sodipodi:role="line"
       x="1.0198923"
       y="21.419468"
       style="font-style:normal;font-variant:normal;font-weight:600;font-stretch:normal;font-size:11.31278706px;line-height:0.20000001%;font-family:Lato;-inkscape-font-specification:'Lato Semi-Bold';font-variant-ligatures:normal;font-variant-caps:normal;font-variant-numeric:normal;font-feature-settings:normal;text-align:start;letter-spacing:0.10747647px;word-spacing:-6.63683701px;writing-mode:lr-tb;text-anchor:start;fill:#092f44;fill-opacity:1;stroke-width:0.94273227px"
       id="tspan68">Adult</tspan><tspan
       sodipodi:role="line"
       x="1.0198923"
       y="33.989235"
       style="font-style:normal;font-variant:normal;font-weight:600;font-stretch:normal;font-size:11.31278706px;line-height:0.20000001%;font-family:Lato;-inkscape-font-specification:'Lato Semi-Bold';font-variant-ligatures:normal;font-variant-caps:normal;font-variant-numeric:normal;font-feature-settings:normal;text-align:start;letter-spacing:0.10747647px;word-spacing:-6.63683701px;writing-mode:lr-tb;text-anchor:start;fill:#092f44;fill-opacity:1;stroke-width:0.94273227px"
       id="tspan70">Learning</tspan></text>
  <flowRoot
     xml:space="preserve"
     id="flowRoot36"
     style="fill:black;stroke:none;stroke-opacity:1;stroke-width:1px;stroke-linejoin:miter;stroke-linecap:butt;fill-opacity:1;font-family:'Noto Serif Display';font-style:normal;font-weight:normal;font-size:10px;line-height:125%;letter-spacing:0px;word-spacing:0px;-inkscape-font-specification:'Noto Serif Display';font-stretch:normal;font-variant:normal;text-anchor:start;text-align:start;writing-mode:lr;"><flowRegion
       id="flowRegion38"
       style="-inkscape-font-specification:'Noto Serif Display';font-family:'Noto Serif Display';font-weight:normal;font-style:normal;font-stretch:normal;font-variant:normal;"><rect
         id="rect40"
         width="36.594936"
         height="29.772152"
         x="-63.886074"
         y="-2.1297469"
         style="-inkscape-font-specification:'Noto Serif Display';font-family:'Noto Serif Display';font-weight:normal;font-style:normal;font-stretch:normal;font-variant:normal" /></flowRegion><flowPara
       id="flowPara42"></flowPara></flowRoot></svg>
